<svg width="56" height="57" viewBox="0 0 56 57" fill="none" xmlns="http://www.w3.org/2000/svg">
<path d="M54.3594 0.280273C53.9219 0.280273 53.5391 0.444336 53.2109 0.772461C52.8828 1.10059 52.7188 1.4834 52.7188 1.9209V7.33496H34.8906V7.22559C34.8542 6.13184 34.3073 5.58496 33.25 5.58496C32.1927 5.58496 31.6458 6.11361 31.6094 7.1709V7.33496H24.3906V7.22559C24.3177 6.13184 23.7617 5.58496 22.7227 5.58496C21.6836 5.58496 21.1458 6.11361 21.1094 7.1709V7.33496H3.28125V1.9209C3.24479 0.827148 2.69792 0.280273 1.64062 0.280273C0.583333 0.280273 0.0364583 0.827148 0 1.9209V54.6396C0.0364583 55.7334 0.583333 56.2803 1.64062 56.2803C2.69792 56.2803 3.24479 55.7334 3.28125 54.6396V10.6162H21.1094V14.335H13.9453C13.7266 14.335 13.5169 14.3805 13.3164 14.4717C13.1159 14.5628 12.9427 14.6813 12.7969 14.8271L7.49219 20.0771C7.20052 20.4053 7.05469 20.7972 7.05469 21.2529C7.05469 21.7087 7.20052 22.1006 7.49219 22.4287L12.3047 27.1865V42.335C12.3047 42.8089 12.4688 43.2008 12.7969 43.5107C13.125 43.8206 13.5078 43.9756 13.9453 43.9756H42.0547C42.4922 43.9756 42.875 43.8206 43.2031 43.5107C43.5312 43.2008 43.6953 42.8089 43.6953 42.335V27.1865L48.5078 22.4287C48.7995 22.1006 48.9453 21.7087 48.9453 21.2529C48.9453 20.7972 48.7995 20.4053 48.5078 20.0771L43.2031 14.8271C43.0573 14.6813 42.8841 14.5628 42.6836 14.4717C42.4831 14.3805 42.2734 14.335 42.0547 14.335H34.8906V10.6162H52.7188V54.6396C52.7552 55.7334 53.3021 56.2803 54.3594 56.2803C55.4167 56.2803 55.9635 55.7334 56 54.6396V1.9209C56 1.4834 55.8359 1.10059 55.5078 0.772461C55.1797 0.444336 54.7969 0.280273 54.3594 0.280273ZM24.3906 10.6162H31.6094V14.335H24.3906V10.6162ZM20.8359 17.6162H24.6094V19.4756C24.5729 20.7152 23.9531 21.335 22.75 21.335C21.5469 21.335 20.9089 20.7152 20.8359 19.4756V17.6162ZM29.8594 26.5303V40.6943H15.5859V26.5303C15.5859 26.3115 15.5404 26.1019 15.4492 25.9014C15.3581 25.7008 15.2396 25.5277 15.0938 25.3818L10.9922 21.2803L14.6016 17.6162H17.5547V19.4756C17.6276 21.1891 18.1927 22.4834 19.25 23.3584C20.3073 24.1969 21.4648 24.6162 22.7227 24.6162C23.9805 24.6162 25.138 24.1969 26.1953 23.3584C27.2526 22.4834 27.8177 21.1891 27.8906 19.4756V17.6162H30.8438L34.4531 21.2803L30.3516 25.3818C30.2057 25.5277 30.0872 25.7008 29.9961 25.9014C29.9049 26.1019 29.8594 26.3115 29.8594 26.5303ZM41.3984 17.6162L45.0078 21.2803L40.9062 25.3818C40.7604 25.5277 40.6419 25.7008 40.5508 25.9014C40.4596 26.1019 40.4141 26.3115 40.4141 26.5303V40.6943H33.1406V27.1865L37.9531 22.4287C38.2812 22.1006 38.4453 21.7087 38.4453 21.2529C38.4453 20.7972 38.2812 20.4053 37.9531 20.0771L35.4922 17.6162H41.3984Z" fill="#2EBB77"/>
</svg>
