<svg width="64" height="64" viewBox="0 0 64 64" fill="none" xmlns="http://www.w3.org/2000/svg">
<path d="M54.625 16.1152H52.875V9.36523C52.875 6.7819 51.9583 4.57357 50.125 2.74023C48.2917 0.906902 46.0833 -0.00976562 43.5 -0.00976562H20.5C17.9167 -0.00976562 15.7083 0.906902 13.875 2.74023C12.0417 4.57357 11.125 6.7819 11.125 9.36523V16.1152H9.375C6.79167 16.1152 4.58333 17.0319 2.75 18.8652C0.916667 20.6986 0 22.9069 0 25.4902V40.4902C0 43.0736 0.916667 45.2819 2.75 47.1152C4.58333 48.9486 6.79167 49.8652 9.375 49.8652H11.125V58.3652C11.125 59.9069 11.6771 61.2298 12.7812 62.334C13.8854 63.4382 15.2083 63.9902 16.75 63.9902H47.25C48.7917 63.9902 50.1146 63.4382 51.2188 62.334C52.3229 61.2298 52.875 59.9069 52.875 58.3652V49.8652H54.625C57.2083 49.8652 59.4167 48.9486 61.25 47.1152C63.0833 45.2819 64 43.0736 64 40.4902V25.4902C64 22.9069 63.0833 20.6986 61.25 18.8652C59.4167 17.0319 57.2083 16.1152 54.625 16.1152ZM14.875 9.36523C14.875 7.82357 15.4271 6.50065 16.5312 5.39648C17.6354 4.29232 18.9583 3.74023 20.5 3.74023H43.5C45.0417 3.74023 46.3646 4.29232 47.4688 5.39648C48.5729 6.50065 49.125 7.82357 49.125 9.36523V16.1152H14.875V9.36523ZM49.125 58.3652C49.125 58.8652 48.9375 59.3027 48.5625 59.6777C48.1875 60.0527 47.75 60.2402 47.25 60.2402H16.75C16.25 60.2402 15.8125 60.0527 15.4375 59.6777C15.0625 59.3027 14.875 58.8652 14.875 58.3652V39.8652H49.125V58.3652ZM60.25 40.4902C60.25 42.0319 59.6979 43.3548 58.5938 44.459C57.4896 45.5632 56.1667 46.1152 54.625 46.1152H52.875V39.8652H54C54.5 39.8652 54.9375 39.6777 55.3125 39.3027C55.6875 38.9277 55.875 38.4902 55.875 37.9902C55.875 37.4902 55.6875 37.0527 55.3125 36.6777C54.9375 36.3027 54.5 36.1152 54 36.1152H10C9.5 36.1152 9.0625 36.3027 8.6875 36.6777C8.3125 37.0527 8.125 37.4902 8.125 37.9902C8.125 38.4902 8.3125 38.9277 8.6875 39.3027C9.0625 39.6777 9.5 39.8652 10 39.8652H11.125V46.1152H9.375C7.83333 46.1152 6.51042 45.5632 5.40625 44.459C4.30208 43.3548 3.75 42.0319 3.75 40.4902V25.4902C3.75 23.9486 4.30208 22.6257 5.40625 21.5215C6.51042 20.4173 7.83333 19.8652 9.375 19.8652H54.625C56.1667 19.8652 57.4896 20.4173 58.5938 21.5215C59.6979 22.6257 60.25 23.9486 60.25 25.4902V40.4902ZM37 44.1152H27C26.5 44.1152 26.0625 44.3027 25.6875 44.6777C25.3125 45.0527 25.125 45.4902 25.125 45.9902C25.125 46.4902 25.3125 46.9277 25.6875 47.3027C26.0625 47.6777 26.5 47.8652 27 47.8652H37C37.5 47.8652 37.9375 47.6777 38.3125 47.3027C38.6875 46.9277 38.875 46.4902 38.875 45.9902C38.875 45.4902 38.6875 45.0527 38.3125 44.6777C37.9375 44.3027 37.5 44.1152 37 44.1152ZM37 52.1152H27C26.5 52.1152 26.0625 52.3027 25.6875 52.6777C25.3125 53.0527 25.125 53.4902 25.125 53.9902C25.125 54.4902 25.3125 54.9277 25.6875 55.3027C26.0625 55.6777 26.5 55.8652 27 55.8652H37C37.5 55.8652 37.9375 55.6777 38.3125 55.3027C38.6875 54.9277 38.875 54.4902 38.875 53.9902C38.875 53.4902 38.6875 53.0527 38.3125 52.6777C37.9375 52.3027 37.5 52.1152 37 52.1152ZM16 24.1152H10C9.5 24.1152 9.0625 24.3027 8.6875 24.6777C8.3125 25.0527 8.125 25.4902 8.125 25.9902C8.125 26.4902 8.3125 26.9277 8.6875 27.3027C9.0625 27.6777 9.5 27.8652 10 27.8652H16C16.5 27.8652 16.9375 27.6777 17.3125 27.3027C17.6875 26.9277 17.875 26.4902 17.875 25.9902C17.875 25.4902 17.6875 25.0527 17.3125 24.6777C16.9375 24.3027 16.5 24.1152 16 24.1152Z" fill="#2EBB77"/>
</svg>
