<svg width="64" height="64" viewBox="0 0 64 64" fill="none" xmlns="http://www.w3.org/2000/svg">
<path d="M58.375 10.2402C57.5833 8.2819 56.3958 6.61523 54.8125 5.24023C53.2292 3.86523 51.4167 2.92773 49.375 2.42773L39.9375 0.0527344C39.6875 -0.0306015 39.4167 -0.0410156 39.125 0.0214844C38.8333 0.0839844 38.5833 0.198566 38.375 0.365234C38.125 0.573566 37.9375 0.802734 37.8125 1.05273C37.6875 1.30273 37.625 1.57357 37.625 1.86523C37.625 3.4069 37.0729 4.72982 35.9688 5.83398C34.8646 6.93815 33.5417 7.49023 32 7.49023C30.4583 7.49023 29.1354 6.93815 28.0312 5.83398C26.9271 4.72982 26.375 3.4069 26.375 1.86523C26.375 1.57357 26.3125 1.30273 26.1875 1.05273C26.0625 0.802734 25.875 0.573566 25.625 0.365234C25.4167 0.198566 25.1667 0.0839844 24.875 0.0214844C24.5833 -0.0410156 24.3125 -0.0306015 24.0625 0.0527344L14.625 2.42773C12.5417 2.92773 10.6979 3.87565 9.09375 5.27148C7.48958 6.66732 6.29167 8.32357 5.5 10.2402L0.125 23.8027C0.0416667 24.0527 0 24.3027 0 24.5527C0 24.8027 0.0625 25.0527 0.1875 25.3027C0.270833 25.5111 0.416667 25.709 0.625 25.8965C0.833333 26.084 1.0625 26.1986 1.3125 26.2402L11.375 29.6152V62.1152C11.375 62.6152 11.5625 63.0527 11.9375 63.4277C12.3125 63.8027 12.75 63.9902 13.25 63.9902H50.75C51.25 63.9902 51.6875 63.8027 52.0625 63.4277C52.4375 63.0527 52.625 62.6152 52.625 62.1152V29.6152L62.6875 26.2402C62.9375 26.1986 63.1667 26.084 63.375 25.8965C63.5833 25.709 63.7292 25.5111 63.8125 25.3027C63.9375 25.0527 64 24.7923 64 24.5215C64 24.2507 63.9583 24.0111 63.875 23.8027L58.375 10.2402ZM52.625 25.6777V16.9902C52.625 16.4902 52.4375 16.0527 52.0625 15.6777C51.6875 15.3027 51.25 15.1152 50.75 15.1152C50.25 15.1152 49.8125 15.3027 49.4375 15.6777C49.0625 16.0527 48.875 16.4902 48.875 16.9902V60.2402H15.125C15.125 59.9486 15.125 57.5736 15.125 53.1152C15.125 48.6986 15.125 43.8548 15.125 38.584C15.125 33.3132 15.125 28.4694 15.125 24.0527C15.125 19.5944 15.125 17.2402 15.125 16.9902C15.125 16.4902 14.9375 16.0527 14.5625 15.6777C14.1875 15.3027 13.75 15.1152 13.25 15.1152C12.75 15.1152 12.3125 15.3027 11.9375 15.6777C11.5625 16.0527 11.375 16.4902 11.375 16.9902V25.6777L4.375 23.3027L9 11.6777C9.54167 10.3027 10.3958 9.11523 11.5625 8.11523C12.7292 7.11523 14.0625 6.42773 15.5625 6.05273L22.9375 4.17773C23.4375 6.2194 24.5312 7.9069 26.2188 9.24023C27.9062 10.5736 29.8333 11.2402 32 11.2402C34.1667 11.2402 36.0938 10.5736 37.7812 9.24023C39.4688 7.9069 40.5625 6.2194 41.0625 4.17773L48.4375 6.05273C49.8958 6.42773 51.1979 7.10482 52.3438 8.08398C53.4896 9.06315 54.3333 10.2611 54.875 11.6777L59.625 23.3652L52.625 25.6777ZM44.4375 23.0527C44.1458 22.8027 43.8125 22.6569 43.4375 22.6152C43.0625 22.5736 42.7292 22.6361 42.4375 22.8027L36.5625 25.7402L33.6875 19.9277C33.5208 19.5944 33.2917 19.334 33 19.1465C32.7083 18.959 32.375 18.8652 32 18.8652C31.625 18.8652 31.2917 18.959 31 19.1465C30.7083 19.334 30.4792 19.5944 30.3125 19.9277L27.4375 25.7402L21.5625 22.8027C21.2708 22.6361 20.9375 22.5736 20.5625 22.6152C20.1875 22.6569 19.8542 22.8027 19.5625 23.0527C19.2708 23.2611 19.0729 23.5423 18.9688 23.8965C18.8646 24.2507 18.8542 24.5944 18.9375 24.9277L22.6875 39.9277C22.7708 40.3444 22.9896 40.6882 23.3438 40.959C23.6979 41.2298 24.0833 41.3652 24.5 41.3652H39.5C39.9167 41.3652 40.3021 41.2298 40.6562 40.959C41.0104 40.6882 41.2292 40.3444 41.3125 39.9277L45.0625 24.9277C45.1458 24.5944 45.1354 24.2507 45.0312 23.8965C44.9271 23.5423 44.7292 23.2611 44.4375 23.0527ZM38.0625 37.6152H25.9375L23.5625 27.9902L27.4375 29.9277C27.8958 30.1361 28.3646 30.1673 28.8438 30.0215C29.3229 29.8757 29.6875 29.5527 29.9375 29.0527L32 24.9277L34.0625 29.0527C34.3125 29.5527 34.6771 29.8757 35.1562 30.0215C35.6354 30.1673 36.1042 30.1361 36.5625 29.9277L40.4375 27.9902L38.0625 37.6152Z" fill="#2EBB77"/>
</svg>
