<svg width="31" height="57" viewBox="0 0 31 57" fill="none" xmlns="http://www.w3.org/2000/svg">
<path d="M29.2031 2.03027C28.0365 0.863605 26.6328 0.280273 24.9922 0.280273C23.3516 0.280273 21.9661 0.863605 20.8359 2.03027L15.1484 7.66309C13.7266 7.51725 12.3229 7.65397 10.9375 8.07324C9.55208 8.49251 8.3125 9.15788 7.21875 10.0693L3.82812 12.9131C2.625 13.8975 1.6862 15.1006 1.01172 16.5225C0.33724 17.9443 0 19.4391 0 21.0068V50.8115C0 52.3063 0.53776 53.5915 1.61328 54.667C2.6888 55.7425 3.97396 56.2803 5.46875 56.2803H23.1328C24.6276 56.2803 25.9128 55.7425 26.9883 54.667C28.0638 53.5915 28.6016 52.3063 28.6016 50.8115V21.2803C28.6016 19.8949 28.3372 18.5732 27.8086 17.3154C27.2799 16.0576 26.5599 14.9365 25.6484 13.9521L29.2031 10.3975C30.3698 9.23079 30.9531 7.82715 30.9531 6.18652C30.9531 4.5459 30.3698 3.16048 29.2031 2.03027ZM25.3203 21.2803V50.8115C25.3203 51.4313 25.1016 51.9508 24.6641 52.3701C24.2266 52.7894 23.7161 52.999 23.1328 52.999H5.46875C4.88542 52.999 4.375 52.7894 3.9375 52.3701C3.5 51.9508 3.28125 51.4313 3.28125 50.8115V21.0068C3.28125 19.9131 3.50911 18.8831 3.96484 17.917C4.42057 16.9508 5.06771 16.1214 5.90625 15.4287L9.29688 12.585C10.5729 11.5277 12.0768 10.9717 13.8086 10.917C15.5404 10.8623 17.0625 11.3454 18.375 12.3662L20.7812 14.1709L17.9375 17.0146C15.7135 15.6657 13.4258 15.6475 11.0742 16.96C8.72266 18.2725 7.5651 20.2412 7.60156 22.8662C7.60156 24.7256 8.26693 26.3206 9.59766 27.6514C10.9284 28.9821 12.5417 29.6475 14.4375 29.6475C17.026 29.6839 18.9857 28.5264 20.3164 26.1748C21.6471 23.8232 21.6198 21.5537 20.2344 19.3662L23.2969 16.249C23.9531 16.9417 24.4544 17.7165 24.8008 18.5732C25.1471 19.43 25.3203 20.3324 25.3203 21.2803ZM17.9375 22.8662C17.8281 25.1995 16.6523 26.3662 14.4102 26.3662C12.168 26.3662 10.9922 25.1995 10.8828 22.8662C10.8464 21.6995 11.3203 20.7516 12.3047 20.0225C13.2891 19.2933 14.3464 19.111 15.4766 19.4756L13.2344 21.7178C12.9427 22.0094 12.7969 22.3831 12.7969 22.8389C12.7969 23.2946 12.9427 23.6865 13.2344 24.0146C13.5625 24.3428 13.9544 24.5068 14.4102 24.5068C14.8659 24.5068 15.2578 24.3428 15.5859 24.0146L17.7734 21.8271C17.8464 21.973 17.8919 22.137 17.9102 22.3193C17.9284 22.5016 17.9375 22.6839 17.9375 22.8662ZM26.9062 8.0459L23.0781 11.874L20.3438 9.7959C20.0885 9.57715 19.8242 9.38574 19.5508 9.22168C19.2773 9.05762 18.9948 8.90267 18.7031 8.75684L23.1328 4.32715C23.6432 3.81673 24.263 3.56152 24.9922 3.56152C25.7214 3.56152 26.3594 3.81673 26.9062 4.32715C27.4167 4.83757 27.6719 5.46647 27.6719 6.21387C27.6719 6.96126 27.4167 7.57194 26.9062 8.0459ZM19.9609 39.7646H8.80469C7.71094 39.8376 7.16406 40.3936 7.16406 41.4326C7.16406 42.4717 7.71094 43.0094 8.80469 43.0459H19.9609C21.0547 43.0094 21.6016 42.4717 21.6016 41.4326C21.6016 40.3936 21.0547 39.8376 19.9609 39.7646ZM19.9609 33.2568H8.80469C7.71094 33.2933 7.16406 33.8311 7.16406 34.8701C7.16406 35.9092 7.71094 36.4652 8.80469 36.5381H19.9609C21.0547 36.4652 21.6016 35.9092 21.6016 34.8701C21.6016 33.8311 21.0547 33.2933 19.9609 33.2568ZM19.9609 46.1631H8.80469C7.71094 46.1995 7.16406 46.7464 7.16406 47.8037C7.16406 48.861 7.71094 49.4079 8.80469 49.4443H19.9609C21.0547 49.4079 21.6016 48.861 21.6016 47.8037C21.6016 46.7464 21.0547 46.1995 19.9609 46.1631Z" fill="#2EBB77"/>
</svg>
