<svg width="32" height="33" viewBox="0 0 32 33" fill="none" xmlns="http://www.w3.org/2000/svg">
<rect y="0.780273" width="32" height="32" rx="16" fill="#E2F5F2"/>
<path d="M22.7188 9.06152C22.9062 9.26986 23 9.50944 23 9.78027C23 10.0511 22.9062 10.2907 22.7188 10.499L8.71875 24.499C8.51042 24.6865 8.27083 24.7803 8 24.7803C7.72917 24.7803 7.48958 24.6865 7.28125 24.499L0.28125 17.499C0.09375 17.2907 0 17.0511 0 16.7803C0 16.5094 0.09375 16.2699 0.28125 16.0615C0.489583 15.874 0.729167 15.7803 1 15.7803C1.27083 15.7803 1.51042 15.874 1.71875 16.0615L8 22.374L21.2812 9.06152C21.4896 8.87402 21.7292 8.78027 22 8.78027C22.2708 8.78027 22.5104 8.87402 22.7188 9.06152Z" fill="#11B196"/>
</svg>
