<svg width="56" height="59" viewBox="0 0 56 59" fill="none" xmlns="http://www.w3.org/2000/svg">
<rect x="4" y="5.36035" width="48" height="48" rx="24" fill="white"/>
<rect x="0.5" y="1.86035" width="55" height="55" rx="27.5" stroke="black"/>
<path d="M34.7188 21.6367C34.9062 21.8451 35 22.0846 35 22.3555C35 22.6263 34.9062 22.8659 34.7188 23.0742L20.7188 37.0742C20.5104 37.2617 20.2708 37.3555 20 37.3555C19.7292 37.3555 19.4896 37.2617 19.2812 37.0742L12.2812 30.0742C12.0938 29.8659 12 29.6263 12 29.3555C12 29.0846 12.0938 28.8451 12.2812 28.6367C12.4896 28.4492 12.7292 28.3555 13 28.3555C13.2708 28.3555 13.5104 28.4492 13.7188 28.6367L20 34.9492L33.2812 21.6367C33.4896 21.4492 33.7292 21.3555 34 21.3555C34.2708 21.3555 34.5104 21.4492 34.7188 21.6367Z" fill="white"/>
</svg>
