<svg width="64" height="60" viewBox="0 0 64 60" fill="none" xmlns="http://www.w3.org/2000/svg">
<path d="M58.375 -0.00976562H5.625C4.08333 -0.00976562 2.76042 0.542316 1.65625 1.64648C0.552083 2.75065 0 4.07357 0 5.61523V43.1152C0 44.6569 0.552083 45.9798 1.65625 47.084C2.76042 48.1882 4.08333 48.7402 5.625 48.7402H21.875L19.375 56.2402H13.25C12.75 56.2402 12.3125 56.4277 11.9375 56.8027C11.5625 57.1777 11.375 57.6152 11.375 58.1152C11.375 58.6152 11.5625 59.0527 11.9375 59.4277C12.3125 59.8027 12.75 59.9902 13.25 59.9902H50.75C51.25 59.9902 51.6875 59.8027 52.0625 59.4277C52.4375 59.0527 52.625 58.6152 52.625 58.1152C52.625 57.6152 52.4375 57.1777 52.0625 56.8027C51.6875 56.4277 51.25 56.2402 50.75 56.2402H44.625L42.125 48.7402H58.375C59.9167 48.7402 61.2396 48.1882 62.3438 47.084C63.4479 45.9798 64 44.6569 64 43.1152V5.61523C64 4.07357 63.4479 2.75065 62.3438 1.64648C61.2396 0.542316 59.9167 -0.00976562 58.375 -0.00976562ZM23.375 56.2402L25.875 48.7402H38.125L40.625 56.2402H23.375ZM60.25 43.1152C60.25 43.6152 60.0625 44.0527 59.6875 44.4277C59.3125 44.8027 58.875 44.9902 58.375 44.9902C57.6667 44.9902 54.6458 44.9902 49.3125 44.9902C44.0208 44.9902 38.25 44.9902 32 44.9902C25.75 44.9902 19.9792 44.9902 14.6875 44.9902C9.35417 44.9902 6.33333 44.9902 5.625 44.9902C5.125 44.9902 4.6875 44.8027 4.3125 44.4277C3.9375 44.0527 3.75 43.6152 3.75 43.1152V41.2402H60.25V43.1152ZM60.25 37.4902H3.75V5.61523C3.75 5.11523 3.9375 4.67773 4.3125 4.30273C4.6875 3.92773 5.125 3.74023 5.625 3.74023H58.375C58.875 3.74023 59.3125 3.92773 59.6875 4.30273C60.0625 4.67773 60.25 5.11523 60.25 5.61523V37.4902ZM37.625 9.36523C37.625 9.86523 37.4375 10.3027 37.0625 10.6777C36.6875 11.0527 36.25 11.2402 35.75 11.2402C35.25 11.2402 34.8125 11.0527 34.4375 10.6777C34.0625 10.3027 33.875 9.86523 33.875 9.36523C33.875 8.86523 34.0625 8.42773 34.4375 8.05273C34.8125 7.67773 35.25 7.49023 35.75 7.49023C36.25 7.49023 36.6875 7.67773 37.0625 8.05273C37.4375 8.42773 37.625 8.86523 37.625 9.36523ZM30.125 9.36523C30.125 9.86523 29.9375 10.3027 29.5625 10.6777C29.1875 11.0527 28.75 11.2402 28.25 11.2402C27.75 11.2402 27.3125 11.0527 26.9375 10.6777C26.5625 10.3027 26.375 9.86523 26.375 9.36523C26.375 8.86523 26.5625 8.42773 26.9375 8.05273C27.3125 7.67773 27.75 7.49023 28.25 7.49023C28.75 7.49023 29.1875 7.67773 29.5625 8.05273C29.9375 8.42773 30.125 8.86523 30.125 9.36523ZM45.125 9.36523C45.125 9.86523 44.9375 10.3027 44.5625 10.6777C44.1875 11.0527 43.75 11.2402 43.25 11.2402C42.75 11.2402 42.3125 11.0527 41.9375 10.6777C41.5625 10.3027 41.375 9.86523 41.375 9.36523C41.375 8.86523 41.5625 8.42773 41.9375 8.05273C42.3125 7.67773 42.75 7.49023 43.25 7.49023C43.75 7.49023 44.1875 7.67773 44.5625 8.05273C44.9375 8.42773 45.125 8.86523 45.125 9.36523ZM20.75 7.49023H9.5C9 7.49023 8.5625 7.67773 8.1875 8.05273C7.8125 8.42773 7.625 8.86523 7.625 9.36523V31.8652C7.625 32.3652 7.8125 32.8027 8.1875 33.1777C8.5625 33.5527 9 33.7402 9.5 33.7402H20.75C21.25 33.7402 21.6875 33.5527 22.0625 33.1777C22.4375 32.8027 22.625 32.3652 22.625 31.8652V9.36523C22.625 8.86523 22.4375 8.42773 22.0625 8.05273C21.6875 7.67773 21.25 7.49023 20.75 7.49023ZM18.875 29.9902H11.375V26.2402H18.875V29.9902ZM18.875 22.4902H11.375V18.7402H18.875V22.4902ZM18.875 14.9902H11.375V11.2402H18.875V14.9902ZM48.3125 26.8027C47.9375 26.4277 47.5 26.2402 47 26.2402C46.5 26.2402 46.0625 26.4277 45.6875 26.8027L43.5625 28.9277L37.3125 19.5527C37.1458 19.3027 36.9271 19.1048 36.6562 18.959C36.3854 18.8132 36.0833 18.7402 35.75 18.7402C35.4167 18.7402 35.1146 18.8132 34.8438 18.959C34.5729 19.1048 34.3542 19.3027 34.1875 19.5527L26.6875 30.8027C26.3958 31.2611 26.3021 31.7402 26.4062 32.2402C26.5104 32.7402 26.7708 33.1361 27.1875 33.4277C27.6458 33.7194 28.125 33.8132 28.625 33.709C29.125 33.6048 29.5208 33.3444 29.8125 32.9277L35.75 23.9902L41.6875 32.9277C41.8542 33.1361 42.0521 33.3132 42.2812 33.459C42.5104 33.6048 42.7708 33.6986 43.0625 33.7402C43.3542 33.7819 43.625 33.7507 43.875 33.6465C44.125 33.5423 44.3542 33.3861 44.5625 33.1777L47 30.7402L49.4375 33.1777C49.8125 33.5527 50.25 33.7402 50.75 33.7402C51.25 33.7402 51.6875 33.5527 52.0625 33.1777C52.4375 32.8027 52.625 32.3652 52.625 31.8652C52.625 31.3652 52.4375 30.9277 52.0625 30.5527L48.3125 26.8027ZM50.75 11.2402C49.2083 11.2402 47.8854 11.7923 46.7812 12.8965C45.6771 14.0007 45.125 15.3236 45.125 16.8652C45.125 18.4069 45.6771 19.7298 46.7812 20.834C47.8854 21.9382 49.2083 22.4902 50.75 22.4902C52.2917 22.4902 53.6146 21.9382 54.7188 20.834C55.8229 19.7298 56.375 18.4069 56.375 16.8652C56.375 15.3236 55.8229 14.0007 54.7188 12.8965C53.6146 11.7923 52.2917 11.2402 50.75 11.2402ZM50.75 18.7402C50.25 18.7402 49.8125 18.5527 49.4375 18.1777C49.0625 17.8027 48.875 17.3652 48.875 16.8652C48.875 16.3652 49.0625 15.9277 49.4375 15.5527C49.8125 15.1777 50.25 14.9902 50.75 14.9902C51.25 14.9902 51.6875 15.1777 52.0625 15.5527C52.4375 15.9277 52.625 16.3652 52.625 16.8652C52.625 17.3652 52.4375 17.8027 52.0625 18.1777C51.6875 18.5527 51.25 18.7402 50.75 18.7402Z" fill="#2EBB77"/>
</svg>
