<svg width="64" height="64" viewBox="0 0 64 64" fill="none" xmlns="http://www.w3.org/2000/svg">
<path d="M18.875 16.8652C18.875 17.3652 18.6875 17.8027 18.3125 18.1777C17.9375 18.5527 17.5 18.7402 17 18.7402C16.5 18.7402 16.0625 18.5527 15.6875 18.1777C15.3125 17.8027 15.125 17.3652 15.125 16.8652C15.125 16.3652 15.3125 15.9277 15.6875 15.5527C16.0625 15.1777 16.5 14.9902 17 14.9902C17.5 14.9902 17.9375 15.1777 18.3125 15.5527C18.6875 15.9277 18.875 16.3652 18.875 16.8652ZM18.875 24.3652C18.875 24.8652 18.6875 25.3027 18.3125 25.6777C17.9375 26.0527 17.5 26.2402 17 26.2402C16.5 26.2402 16.0625 26.0527 15.6875 25.6777C15.3125 25.3027 15.125 24.8652 15.125 24.3652C15.125 23.8652 15.3125 23.4277 15.6875 23.0527C16.0625 22.6777 16.5 22.4902 17 22.4902C17.5 22.4902 17.9375 22.6777 18.3125 23.0527C18.6875 23.4277 18.875 23.8652 18.875 24.3652ZM18.875 9.36523C18.875 9.86523 18.6875 10.3027 18.3125 10.6777C17.9375 11.0527 17.5 11.2402 17 11.2402C16.5 11.2402 16.0625 11.0527 15.6875 10.6777C15.3125 10.3027 15.125 9.86523 15.125 9.36523C15.125 8.86523 15.3125 8.42773 15.6875 8.05273C16.0625 7.67773 16.5 7.49023 17 7.49023C17.5 7.49023 17.9375 7.67773 18.3125 8.05273C18.6875 8.42773 18.875 8.86523 18.875 9.36523ZM62.125 -0.00976562H43.25C41.7083 -0.00976562 40.3854 0.542316 39.2812 1.64648C38.1771 2.75065 37.625 4.07357 37.625 5.61523V11.2402H33.875V1.86523C33.875 1.36523 33.6875 0.927734 33.3125 0.552734C32.9375 0.177734 32.5 -0.00976562 32 -0.00976562H9.5C9 -0.00976562 8.5625 0.177734 8.1875 0.552734C7.8125 0.927734 7.625 1.36523 7.625 1.86523V11.2402H1.875C1.375 11.2402 0.9375 11.4277 0.5625 11.8027C0.1875 12.1777 0 12.6152 0 13.1152V20.6152C0 21.1152 0.1875 21.5527 0.5625 21.9277C0.9375 22.3027 1.375 22.4902 1.875 22.4902H7.625V35.6152C7.625 37.1569 8.17708 38.4798 9.28125 39.584C10.3854 40.6882 11.7083 41.2402 13.25 41.2402H15.125V43.1152C15.125 44.3236 15.4792 45.4173 16.1875 46.3965C16.8958 47.3757 17.7917 48.0527 18.875 48.4277V52.7402H13.25C11.7083 52.7402 10.3854 53.2923 9.28125 54.3965C8.17708 55.5007 7.625 56.8236 7.625 58.3652V60.2402H1.875C1.375 60.2402 0.9375 60.4277 0.5625 60.8027C0.1875 61.1777 0 61.6152 0 62.1152C0 62.6152 0.1875 63.0527 0.5625 63.4277C0.9375 63.8027 1.375 63.9902 1.875 63.9902H62.125C62.625 63.9902 63.0625 63.8027 63.4375 63.4277C63.8125 63.0527 64 62.6152 64 62.1152C64 61.6152 63.8125 61.1777 63.4375 60.8027C63.0625 60.4277 62.625 60.2402 62.125 60.2402H33.875V58.3652C33.875 56.8236 33.3229 55.5007 32.2188 54.3965C31.1146 53.2923 29.7917 52.7402 28.25 52.7402H22.625V48.4277C23.7083 48.0527 24.6042 47.3757 25.3125 46.3965C26.0208 45.4173 26.375 44.3236 26.375 43.1152V41.2402H28.25C29.7917 41.2402 31.1146 40.6882 32.2188 39.584C33.3229 38.4798 33.875 37.1569 33.875 35.6152V22.4902H43.25C44.7917 22.4902 46.1146 21.9382 47.2188 20.834C48.3229 19.7298 48.875 18.4069 48.875 16.8652V11.2402H62.125C62.625 11.2402 63.0625 11.0527 63.4375 10.6777C63.8125 10.3027 64 9.86523 64 9.36523V1.86523C64 1.36523 63.8125 0.927734 63.4375 0.552734C63.0625 0.177734 62.625 -0.00976562 62.125 -0.00976562ZM30.125 58.3652V60.2402H11.375V58.3652C11.375 57.8652 11.5625 57.4277 11.9375 57.0527C12.3125 56.6777 12.75 56.4902 13.25 56.4902H28.25C28.75 56.4902 29.1875 56.6777 29.5625 57.0527C29.9375 57.4277 30.125 57.8652 30.125 58.3652ZM11.375 3.74023H30.125V7.49023H24.5C24 7.49023 23.5625 7.67773 23.1875 8.05273C22.8125 8.42773 22.625 8.86523 22.625 9.36523C22.625 9.86523 22.8125 10.3027 23.1875 10.6777C23.5625 11.0527 24 11.2402 24.5 11.2402H30.125V14.9902H24.5C24 14.9902 23.5625 15.1777 23.1875 15.5527C22.8125 15.9277 22.625 16.3652 22.625 16.8652C22.625 17.3652 22.8125 17.8027 23.1875 18.1777C23.5625 18.5527 24 18.7402 24.5 18.7402H30.125V22.4902H24.5C24 22.4902 23.5625 22.6777 23.1875 23.0527C22.8125 23.4277 22.625 23.8652 22.625 24.3652C22.625 24.8652 22.8125 25.3027 23.1875 25.6777C23.5625 26.0527 24 26.2402 24.5 26.2402H30.125V29.9902H11.375V3.74023ZM3.75 18.7402V14.9902H7.625V18.7402H3.75ZM22.625 43.1152C22.625 43.6152 22.4375 44.0527 22.0625 44.4277C21.6875 44.8027 21.25 44.9902 20.75 44.9902C20.25 44.9902 19.8125 44.8027 19.4375 44.4277C19.0625 44.0527 18.875 43.6152 18.875 43.1152V41.2402H22.625V43.1152ZM28.25 37.4902H13.25C12.75 37.4902 12.3125 37.3027 11.9375 36.9277C11.5625 36.5527 11.375 36.1152 11.375 35.6152V33.7402H30.125V35.6152C30.125 36.1152 29.9375 36.5527 29.5625 36.9277C29.1875 37.3027 28.75 37.4902 28.25 37.4902ZM47 7.49023C46.5 7.49023 46.0625 7.67773 45.6875 8.05273C45.3125 8.42773 45.125 8.86523 45.125 9.36523V16.8652C45.125 17.3652 44.9375 17.8027 44.5625 18.1777C44.1875 18.5527 43.75 18.7402 43.25 18.7402H33.875V14.9902H39.5C40 14.9902 40.4375 14.8027 40.8125 14.4277C41.1875 14.0527 41.375 13.6152 41.375 13.1152V5.61523C41.375 5.11523 41.5625 4.67773 41.9375 4.30273C42.3125 3.92773 42.75 3.74023 43.25 3.74023H60.25V7.49023H47Z" fill="#2EBB77"/>
</svg>
